HIERARCHY
ROOT Hips
{
	OFFSET 0.000000 0.000000 0.000000 
	CHANNELS 6 Xposition Yposition Zposition Yrotation Zrotation Xrotation 
	JOINT Lumbar
	{
		OFFSET 0.000000 0.000000 0.000000 
		CHANNELS 3 Zrotation Xrotation Yrotation
		JOINT Neck
		{
			OFFSET 0.000000 0.445665 0.000000 
			CHANNELS 3 Zrotation Xrotation Yrotation
			End Site
			{
				OFFSET 0.000000 0.227535 0.000000 
			}
		}
		JOINT RightShoulder
		{
			OFFSET 0.019635 0.377685 0.194865 
			CHANNELS 3 Zrotation Xrotation Yrotation
			JOINT RightElbow
			{
				OFFSET 0.000000 -0.243375 0.000000 
				CHANNELS 2 Zrotation Yrotation
				JOINT RightWrist
				{
					OFFSET 0.000000 -0.264825 0.000000 
					CHANNELS 2 Zrotation Xrotation
					End Site
					{
						OFFSET 0.006600 -0.176220 0.000990 
					}
				}
			}
		}
		JOINT LeftShoulder
		{
			OFFSET 0.019635 0.377685 -0.194865 
			CHANNELS 3 Zrotation Xrotation Yrotation
			JOINT LeftElbow
			{
				OFFSET 0.000000 -0.243375 0.000000 
				CHANNELS 2 Zrotation Yrotation
				JOINT LeftWrist
				{
					OFFSET 0.000000 -0.264825 0.000000 
					CHANNELS 2 Zrotation Xrotation
					End Site
					{
						OFFSET 0.006600 -0.176220 -0.000990 
					}
				}
			}
		}
	}
	JOINT RightHip
	{
		OFFSET 0.052140 -0.069960 0.075570 
		CHANNELS 3 Zrotation Xrotation Yrotation
		JOINT RightKnee
		{
			OFFSET 0.000000 -0.402270 0.000000 
			CHANNELS 1 Zrotation
			JOINT RightAnkle
			{
				OFFSET 0.000000 -0.404085 0.000000 
				CHANNELS 3 Zrotation Xrotation Yrotation
				End Site
				{
					OFFSET 0.204105 -0.089430 0.008415 
				}
			}
		}
	}
	JOINT LeftHip
	{
		OFFSET 0.052140 -0.069960 -0.075570 
		CHANNELS 3 Zrotation Xrotation Yrotation
		JOINT LeftKnee
		{
			OFFSET 0.000000 -0.402270 0.000000 
			CHANNELS 1 Zrotation
			JOINT LeftAnkle
			{
				OFFSET 0.000000 -0.404085 0.000000 
				CHANNELS 3 Zrotation Xrotation Yrotation
				End Site
				{
					OFFSET 0.204105 -0.089430 -0.008415 
				}
			}
		}
	}
}
MOTION
Frames: 14
Frame Time: 0.02
-0.01007 -0.01111 0.0762 9.79471 -24.97666 -2.30707 37.12317 6.93046 -4.09086 -8.70591 4.73735 -2.08415 -7.66459 -28.97692 21.62978 49.13604 86.3741 4.12164 3.04149 -27.20647 28.11624 -10.46103 56.05063 -90.55209 7.04116 -0.46139 46.17384 -0.64775 -12.7507 -25.68916 -6.39401 -1.50221 -2.97504 48.61914 14.00116 8.42949 -35.66368 -7.22271 2.43934 3.44818
-0.01176 -0.01105 0.07245 9.57557 -25.09523 -2.27924 36.93255 7.02972 -3.75761 -8.54453 5.09625 -2.08427 -6.99004 -28.23805 21.54764 47.7534 86.33027 3.86517 3.0996 -27.15794 28.1241 -10.58119 56.32396 -89.98322 6.89696 -0.35508 46.34402 -0.95281 -12.85683 -25.59187 -6.42154 -1.46142 -2.95508 48.64379 13.83458 8.37676 -35.37345 -7.16339 2.36208 3.40954
-0.01353 -0.01104 0.06828 9.37908 -25.21511 -2.28431 36.73182 7.12404 -3.45526 -8.38536 5.49368 -2.08441 -6.4311 -27.35206 21.1305 46.37026 86.25636 3.58341 3.12788 -27.13 28.12045 -10.6029 56.63758 -90.44837 6.95247 -0.47609 46.49456 -1.30522 -13.18392 -25.4733 -6.45433 -1.4058 -2.92689 48.63758 13.63068 8.28973 -34.95811 -7.11477 2.29692 3.37769
-0.01529 -0.01101 0.06427 9.17555 -25.33138 -2.27681 36.52882 7.21746 -3.14373 -8.21979 5.87764 -2.08456 -5.79778 -26.52847 20.88162 44.9496 86.19888 3.31837 3.16338 -27.08129 28.13131 -10.68821 56.92347 -90.40449 6.91028 -0.48501 46.65345 -1.63495 -13.40126 -25.36598 -6.48471 -1.35805 -2.90309 48.64585 13.44384 8.23237 -34.60683 -7.06191 2.22741 3.34327
-0.01694 -0.01096 0.06037 8.95918 -25.45784 -2.25937 36.35429 7.32403 -2.81217 -8.07955 6.24776 -2.08461 -5.25334 -25.71732 20.56354 43.67594 86.12938 3.03158 3.21984 -27.08447 28.10415 -10.69397 57.25237 -90.45647 6.88588 -0.51549 46.81002 -1.97012 -13.65862 -25.24946 -6.51501 -1.30555 -2.87656 48.64758 13.25723 8.11714 -34.22297 -7.00584 2.15216 3.3062
-0.01884 -0.01097 0.05616 8.77437 -25.56644 -2.27015 36.11836 7.40174 -2.52932 -7.88445 6.65288 -2.08488 -4.55393 -24.84812 20.30896 42.10586 86.07795 2.78302 3.22866 -26.98061 28.15301 -10.84275 57.49863 -90.57945 6.87506 -0.56096 46.97191 -2.3045 -13.88134 -25.14838 -6.54694 -1.25971 -2.8539 48.66014 13.06037 8.11255 -33.87782 -6.95927 2.09216 3.27648
-0.02135 -0.01114 0.05125 8.67397 -25.59937 -2.35393 35.71351 7.40529 -2.37511 -7.55817 7.16629 -2.08573 -3.38203 -23.85125 20.33374 39.65639 86.08285 2.65823 3.10143 -26.60513 28.41387 -11.40148 57.52377 -90.66454 6.86791 -0.59306 47.11182 -2.63186 -13.99986 -25.09117 -6.58034 -1.23209 -2.84209 48.67579 12.85228 8.43572 -33.67373 -6.93559 2.07041 3.26501
-0.02414 -0.01137 0.04607 8.60405 -25.61893 -2.46438 35.24733 7.37933 -2.26827 -7.1729 7.70923 -2.0868 -2.05434 -22.80317 20.43125 36.92271 86.10699 2.57081 2.92957 -26.11506 28.75108 -12.10909 57.46095 -90.79191 6.86657 -0.63443 47.26542 -2.95599 -14.06936 -25.05156 -6.61554 -1.21218 -2.83469 48.7099 12.63357 8.86857 -33.5128 -6.92129 2.06389 3.26085
-0.02686 -0.01158 0.04101 8.51809 -25.66204 -2.56066 34.81082 7.36399 -2.13885 -6.80056 8.22493 -2.08777 -0.80779 -21.7808 20.4804 34.35786 86.12318 2.45835 2.78731 -25.65909 29.05433 -12.75433 57.42704 -90.89762 6.85456 -0.67331 47.44031 -3.27661 -14.13006 -25.00646 -6.65104 -1.19137 -2.82653 48.75849 12.4147 9.24233 -33.32988 -6.90325 2.0511 3.25363
-0.02932 -0.01177 0.03591 8.4417 -25.63243 -2.66693 34.36748 7.35983 -2.01583 -6.48583 8.80133 -2.08877 0.48202 -20.74025 20.57882 31.61814 86.13572 2.3784 2.60701 -25.28225 29.35625 -13.37382 57.44126 -91.0486 6.88318 -0.71277 47.49915 -3.61801 -14.32349 -24.94886 -6.68191 -1.15969 -2.81314 48.70997 12.2161 9.65478 -33.15175 -6.88344 2.03591 3.24547
-0.03238 -0.01202 0.03085 8.35291 -25.74983 -2.75805 33.92252 7.32597 -1.88922 -6.03841 9.25656 -2.08974 1.71567 -19.73067 20.60078 29.18427 86.15989 2.24071 2.49272 -24.70998 29.6765 -14.08357 57.33382 -91.10187 6.82598 -0.75004 47.80219 -3.91712 -14.23363 -24.92317 -6.72289 -1.1519 -2.81144 48.8678 11.97262 10.01206 -32.97658 -6.86931 2.02928 3.241
-0.03702 -0.01245 0.02597 8.21672 -26.28713 -2.80273 33.50073 7.21267 -1.74981 -5.2282 9.38085 -2.09058 2.79521 -18.79129 20.35495 27.5853 86.21963 1.92754 2.59841 -23.65521 30.05197 -15.00597 56.91453 -90.87514 6.52977 -0.78115 48.78533 -4.07942 -13.30555 -24.9697 -6.79062 -1.21506 -2.84416 49.59671 11.61355 10.20064 -32.79056 -6.86916 2.04166 3.24431
-0.04224 -0.01295 0.02115 8.06765 -26.97061 -2.8307 33.07749 7.07138 -1.60297 -4.28921 9.38036 -2.09137 3.80596 -17.89054 20.03717 26.3173 86.28916 1.55614 2.76765 -22.404 30.43898 -16.01406 56.37731 -90.54357 6.14599 -0.80826 50.01206 -4.20269 -12.10488 -25.05022 -6.8686 -1.30086 -2.88799 50.53118 11.20904 10.3289 -32.60806 -6.87421 2.0622 3.25116
-0.0472 -0.01344 0.0163 7.92851 -27.58041 -2.8649 32.64621 6.94596 -1.45419 -3.41531 9.42914 -2.09219 4.82332 -16.99141 19.78136 24.95161 86.34888 1.21636 2.88988 -21.22126 30.80546 -16.9842 55.88945 -90.25495 5.80191 -0.83465 51.12151 -4.35759 -11.07342 -25.12264 -6.94233 -1.37176 -2.92463 51.36856 10.82143 10.47711 -32.43038 -6.87644 2.07955 3.25678
